<svg xmlns="http://www.w3.org/2000/svg" viewBox="0 0 256 256" width="256" height="256" role="img" aria-label="Multi-Track Audio Visualizer icon"><!--! Font Awesome Free 7.0.1 by @fontawesome - https://fontawesome.com License - https://fontawesome.com/license/free (Icons: CC BY 4.0, Fonts: SIL OFL 1.1, Code: MIT License) Copyright 2025 Fonticons, Inc. --><rect x="2.0" y="2.0" width="252" height="252" rx="40" fill="#0f172a" stroke="#334155" stroke-width="4"/><svg x="48.0" y="48.0" width="160" height="160" viewBox="0 0 512 512"><path fill="#818CF8" d="M64 96c0-17.7 14.3-32 32-32l160 0c17.7 0 32 14.3 32 32l0 288 96 0 0-128c0-17.7 14.3-32 32-32l64 0c17.7 0 32 14.3 32 32s-14.3 32-32 32l-32 0 0 128c0 17.7-14.3 32-32 32l-160 0c-17.7 0-32-14.3-32-32l0-288-96 0 0 128c0 17.7-14.3 32-32 32l-64 0c-17.7 0-32-14.3-32-32s14.3-32 32-32l32 0 0-128z"/></svg></svg>
